<svg width="13" height="13" viewBox="0 0 13 13" fill="none" xmlns="http://www.w3.org/2000/svg">
<circle cx="6.5" cy="6.5" r="6" stroke="#2F8934"/>
<path d="M8.8496 4.21142L9.34853 4.24421L9.38593 3.67509L8.81681 3.7125L8.8496 4.21142ZM3.64361 8.7103C3.44835 8.90557 3.44835 9.22215 3.64361 9.41741C3.83888 9.61267 4.15546 9.61267 4.35072 9.41741L3.64361 8.7103ZM9.14902 7.27967L9.34853 4.24421L8.35068 4.17863L8.15118 7.21408L9.14902 7.27967ZM8.81681 3.7125L5.78136 3.912L5.84694 4.90985L8.8824 4.71034L8.81681 3.7125ZM8.49605 3.85787L3.64361 8.7103L4.35072 9.41741L9.20316 4.56497L8.49605 3.85787Z" fill="#2F8934"/>
</svg>
