<svg width="13" height="13" viewBox="0 0 13 13" fill="none" xmlns="http://www.w3.org/2000/svg">
<circle cx="6.5" cy="6.5" r="6" transform="rotate(-180 6.5 6.5)" stroke="#89552F"/>
<path d="M4.1504 8.78858L3.65147 8.75579L3.61407 9.32491L4.18319 9.2875L4.1504 8.78858ZM9.35639 4.2897C9.55165 4.09443 9.55165 3.77785 9.35639 3.58259C9.16112 3.38733 8.84454 3.38733 8.64928 3.58259L9.35639 4.2897ZM3.85098 5.72033L3.65147 8.75579L4.64932 8.82137L4.84882 5.78592L3.85098 5.72033ZM4.18319 9.2875L7.21864 9.088L7.15306 8.09015L4.1176 8.28966L4.18319 9.2875ZM4.50395 9.14213L9.35639 4.2897L8.64928 3.58259L3.79684 8.43503L4.50395 9.14213Z" fill="#89552F"/>
</svg>
